# xmcd
#
# Track frame offsets:
#	150
#	15017
#	28350
#	47169
#	60006
#	74206
#	87470
#	99333
#	113032
#	127362
#	139655
#	153253
#	167941
#	181688
#	195038
#	208881
#	225146
#	239760
#	254367
#	268687
#
# Disc length: 3855
#
# Revision: 1
# Processed by: cddbd v1.5.1PL0 Copyright (c) Steve Scherf et al.
# Submitted via: CDex 1.51
# Normalized: r0:DSETVAR1,TDELIM( - )
#
DISCID=110f0d14
DTITLE=Various Artist - Fireworks Jazz Archives
DYEAR=1900
DGENRE=Jazz
TTITLE0=Louis Armstrong - West End Blues
TTITLE1=Count Basie - One O'Clock Jump
TTITLE2=Sidney Bechet - Summertime
TTITLE3=Cab Calloway - Jumpin' Jive
TTITLE4=Tommy Dorsey - Boogie Woogie
TTITLE5=Duke Ellington - Solitude
TTITLE6=Ella Fitzgerald - A-Tisket A-Tasket
TTITLE7=Benny Goodman - Royal Garden Blues
TTITLE8=Lionel Hampton - Flying Home
TTITLE9=Earl Hines - Boogie Woogie_St. Louis Blues
TTITLE10=Coleman Hawkins - Bodie And Soul
TTITLE11=Erskine Hawkins - Tuxedo Junction
TTITLE12=Billie Holiday - My Man
TTITLE13=Nat King Cole - Sweet Lorraine
TTITLE14=Jimmie Luneeford - Margie
TTITLE15=Glenn Miller - In The Mood
TTITLE16=Django Reinhardt - Nuages
TTITLE17=Artie Shaw - Begin The Beguine
TTITLE18=Bessie Smith - St. Louis Blues
TTITLE19=Fats Waller - Honeysuckle Rose
EXTD=
EXTT0=
EXTT1=
EXTT2=
EXTT3=
EXTT4=
EXTT5=
EXTT6=
EXTT7=
EXTT8=
EXTT9=
EXTT10=
EXTT11=
EXTT12=
EXTT13=
EXTT14=
EXTT15=
EXTT16=
EXTT17=
EXTT18=
EXTT19=
PLAYORDER=
